<?xml version="1.0" encoding="UTF-8" standalone="no"?>
<svg
   xmlns:dc="http://purl.org/dc/elements/1.1/"
   xmlns:cc="http://creativecommons.org/ns#"
   xmlns:rdf="http://www.w3.org/1999/02/22-rdf-syntax-ns#"
   xmlns:svg="http://www.w3.org/2000/svg"
   xmlns="http://www.w3.org/2000/svg"
   xmlns:sodipodi="http://sodipodi.sourceforge.net/DTD/sodipodi-0.dtd"
   xmlns:inkscape="http://www.inkscape.org/namespaces/inkscape"
   width="103"
   height="85.474579"
   viewBox="0 0 103 85.474579"
   version="1.1"
   id="svg4"
   sodipodi:docname="but2.svg"
   inkscape:version="0.92.2 (5c3e80d, 2017-08-06)"
   style="fill:none">
  <metadata
     id="metadata10">
    <rdf:RDF>
      <cc:Work
         rdf:about="">
        <dc:format>image/svg+xml</dc:format>
        <dc:type
           rdf:resource="http://purl.org/dc/dcmitype/StillImage" />
        <dc:title></dc:title>
      </cc:Work>
    </rdf:RDF>
  </metadata>
  <defs
     id="defs8" />
  <sodipodi:namedview
     pagecolor="#ffffff"
     bordercolor="#666666"
     borderopacity="1"
     objecttolerance="10"
     gridtolerance="10"
     guidetolerance="10"
     inkscape:pageopacity="0"
     inkscape:pageshadow="2"
     inkscape:window-width="1817"
     inkscape:window-height="1051"
     id="namedview6"
     showgrid="false"
     inkscape:zoom="2.8780488"
     inkscape:cx="-6.5254234"
     inkscape:cy="44.474576"
     inkscape:window-x="94"
     inkscape:window-y="-9"
     inkscape:window-maximized="1"
     inkscape:current-layer="svg4"
     fit-margin-top="0"
     fit-margin-left="0"
     fit-margin-right="0"
     fit-margin-bottom="0" />
  <path
     d="M 99.9286,0 H 52.3527 50.7314 3.15546 C 1.46031,0 0,1.3352274 0,3.0910941 v 60.7468439 0.211393 5.629856 0.351593 c 0,1.755877 1.46031,3.231356 3.15546,3.231356 H 41.2599 c -0.0431,1.005889 -0.3477,5.337678 -2.3361,7.437747 -1.567,1.656018 -3.7451,3.20686 -2.894,4.002399 0.2062,0.489707 1.1824,0.772294 3.4047,0.772294 4.9009,0 10.2088,0 12.1522,0 0.4912,0 0.767,0 0.767,0 1.9423,0 7.2513,0 12.1512,0 2.5299,0 3.4138,-0.429145 3.4231,-1.070725 H 67.8408 V 84.1935 H 67.7516 C 67.6388,83.328852 65.9508,82.051007 64.673,80.705199 62.6846,78.605131 62.3831,74.275426 62.339,73.267452 h 37.5927 c 1.6943,0 3.0683,-1.475479 3.0683,-3.230314 V 69.682419 64.055794 63.841169 3.0921574 C 102.999,1.3352274 101.622,0 99.9286,0 Z M 51.4985,70.184842 c -1.1066,0 -2.0018,-0.926252 -2.0018,-2.072445 0,-1.146194 0.8963,-2.073489 2.0018,-2.073489 1.1054,0 2.0017,0.927295 2.0017,2.073489 0,1.146193 -0.8973,2.072445 -2.0017,2.072445 z M 98.6539,59.342601 H 4.34401 V 4.2861017 H 98.6539 V 59.342601 h 0.0021 z"
     id="path2"
     inkscape:connector-curvature="0"
     style="fill:#000000;stroke-width:1.02096665" />
  <g
     style="fill:none"
     id="g23"
     transform="matrix(1.2029686,0,0,1.2029686,11.203704,16.584115)">
    <path
       id="path12"
       transform="translate(0.97168,0.110596)"
       d="M 61.817,4.04287e-7 C 60.0183,4.04287e-7 58.5723,1.44298 58.5723,3.22224 c 0,0.4494 0.0882,0.87333 0.2492,1.26362 L 43.0709,15.9706 c -0.5691,-0.4871 -1.3034,-0.7745 -2.1115,-0.7745 -0.8819,0 -1.6951,0.3567 -2.2807,0.9365 L 24.1997,7.11603 c 0.1087,-0.32405 0.1733,-0.67359 0.1733,-1.03739 0,-1.77722 -1.4541,-3.22122 -3.2457,-3.22122 -1.7936,0 -3.2457,1.444 -3.2457,3.22122 0,0.62366 0.1846,1.20452 0.4912,1.69366 L 4.947,21.1147 C 4.45374,20.809 3.8692,20.6276 3.24057,20.6276 1.45108,20.6276 4.69436e-7,22.0767 4.69436e-7,23.8499 0.00307696,25.6322 1.45313,27.0711 3.24262,27.0711 c 1.79668,0 3.24878,-1.4399 3.24878,-3.2182 0,-0.6195 -0.18356,-1.2024 -0.49121,-1.6896 L 19.4229,8.81377 c 0.4974,0.30674 1.0789,0.48915 1.7095,0.48915 0.8871,0 1.6962,-0.35769 2.2807,-0.93549 l 14.4852,9.00737 c -0.1118,0.3261 -0.1784,0.6777 -0.1784,1.0405 0,1.7874 1.4469,3.2243 3.2395,3.2243 1.7916,0 3.2426,-1.4379 3.2426,-3.2243 0,-0.4494 -0.0902,-0.8703 -0.2543,-1.2565 L 59.7055,5.67102 c 0.5661,0.48099 1.3024,0.77346 2.1115,0.77346 1.7885,0 3.2344,-1.44196 3.2344,-3.22122 C 65.0514,1.4389 63.6024,4.04287e-7 61.817,4.04287e-7 Z"
       inkscape:connector-curvature="0"
       style="fill:#000000" />
  </g>
</svg>
