<svg width="91" height="73" viewBox="0 0 91 73" fill="none" xmlns="http://www.w3.org/2000/svg">
<path d="M15.47 11.453L9.59189 14.8927L3.66459 18.3323C3.29065 18.5438 2.86824 18.6532 2.43929 18.6497C2.01034 18.6462 1.58976 18.5298 1.21932 18.3122C0.848879 18.0945 0.541448 17.7832 0.327553 17.4091C0.113659 17.035 0.000739448 16.6111 9.38209e-07 16.1795V2.47031C0.000739448 2.03871 0.113659 1.61481 0.327553 1.24069C0.541448 0.866566 0.848879 0.555237 1.21932 0.337609C1.58976 0.119981 2.01034 0.0036201 2.43929 8.09477e-05C2.86824 -0.0034582 3.29065 0.10595 3.66459 0.317436L9.59189 3.7571L15.4946 7.19675C15.8603 7.418 16.1626 7.7312 16.3716 8.10556C16.5806 8.47992 16.6892 8.90256 16.6867 9.33194C16.6843 9.76132 16.5708 10.1827 16.3575 10.5545C16.1441 10.9264 15.8383 11.2361 15.47 11.453Z" transform="translate(37.4819 24.0819)" fill="black"/>
<path d="M15.47 11.453L9.59189 14.8927L3.66459 18.3323C3.29065 18.5438 2.86824 18.6532 2.43929 18.6497C2.01034 18.6462 1.58976 18.5298 1.21932 18.3122C0.848879 18.0945 0.541448 17.7832 0.327553 17.4091C0.113659 17.035 0.000739448 16.6111 9.38209e-07 16.1795V2.47031C0.000739448 2.03871 0.113659 1.61481 0.327553 1.24069C0.541448 0.866566 0.848879 0.555237 1.21932 0.337609C1.58976 0.119981 2.01034 0.0036201 2.43929 8.09477e-05C2.86824 -0.0034582 3.29065 0.10595 3.66459 0.317436L9.59189 3.7571L15.4946 7.19675C15.8603 7.418 16.1626 7.7312 16.3716 8.10556C16.5806 8.47992 16.6892 8.90256 16.6867 9.33194C16.6843 9.76132 16.5708 10.1827 16.3575 10.5545C16.1441 10.9264 15.8383 11.2361 15.47 11.453Z" transform="translate(37.4819 24.0819)" fill="black"/>
<path d="M15.47 11.453L9.59189 14.8927L3.66459 18.3323C3.29065 18.5438 2.86824 18.6532 2.43929 18.6497C2.01034 18.6462 1.58976 18.5298 1.21932 18.3122C0.848879 18.0945 0.541448 17.7832 0.327553 17.4091C0.113659 17.035 0.000739448 16.6111 9.38209e-07 16.1795V2.47031C0.000739448 2.03871 0.113659 1.61481 0.327553 1.24069C0.541448 0.866566 0.848879 0.555237 1.21932 0.337609C1.58976 0.119981 2.01034 0.0036201 2.43929 8.09477e-05C2.86824 -0.0034582 3.29065 0.10595 3.66459 0.317436L9.59189 3.7571L15.4946 7.19675C15.8603 7.418 16.1626 7.7312 16.3716 8.10556C16.5806 8.47992 16.6892 8.90256 16.6867 9.33194C16.6843 9.76132 16.5708 10.1827 16.3575 10.5545C16.1441 10.9264 15.8383 11.2361 15.47 11.453Z" transform="translate(37.4819 24.0819)" fill="black"/>
<path d="M3.91054 0C3.61455 0.797978 3.61455 1.6766 3.91054 2.47458H0V0H3.91054Z" transform="translate(2.80371 70.5254)" fill="black"/>
<path d="M1.22973 2.47458C1.90889 2.47458 2.45946 1.92062 2.45946 1.23729C2.45946 0.553953 1.90889 0 1.22973 0C0.550569 0 0 0.553953 0 1.23729C0 1.92062 0.550569 2.47458 1.22973 2.47458Z" transform="translate(8.95239 70.5254)" fill="black"/>
<path d="M72.7754 0V2.47458H-3.75284e-07C0.295991 1.6766 0.295991 0.797978 -3.75284e-07 0H72.7754Z" transform="translate(13.6499 70.5254)" fill="black"/>
<path d="M81.1622 0H9.83784C7.22868 0 4.72639 1.04285 2.88144 2.89915C1.03648 4.75544 3.28373e-07 7.27311 3.28373e-07 9.8983V56.9153C3.28373e-07 59.5404 1.03648 62.0581 2.88144 63.9144C4.72639 65.7707 7.22868 66.8136 9.83784 66.8136H81.1622C83.7713 66.8136 86.2736 65.7707 88.1186 63.9144C89.9635 62.0581 91 59.5404 91 56.9153V9.8983C91 7.27311 89.9635 4.75544 88.1186 2.89915C86.2736 1.04285 83.7713 0 81.1622 0ZM44.6146 54.4407C40.4799 54.4407 36.438 53.2071 33.0002 50.8958C29.5623 48.5846 26.8828 45.2995 25.3005 41.4561C23.7182 37.6127 23.3042 33.3834 24.1109 29.3033C24.9175 25.2231 26.9086 21.4752 29.8322 18.5336C32.7559 15.5919 36.4809 13.5886 40.5362 12.777C44.5914 11.9654 48.7948 12.382 52.6147 13.974C56.4347 15.566 59.6997 18.262 61.9968 21.721C64.2939 25.18 65.52 29.2467 65.52 33.4068C65.5135 38.9833 63.3089 44.3296 59.3898 48.2728C55.4706 52.216 50.1571 54.4341 44.6146 54.4407Z" fill="black"/>
</svg>
