<?xml version="1.0" encoding="UTF-8" standalone="no"?>
<svg
   xmlns:dc="http://purl.org/dc/elements/1.1/"
   xmlns:cc="http://creativecommons.org/ns#"
   xmlns:rdf="http://www.w3.org/1999/02/22-rdf-syntax-ns#"
   xmlns:svg="http://www.w3.org/2000/svg"
   xmlns="http://www.w3.org/2000/svg"
   xmlns:sodipodi="http://sodipodi.sourceforge.net/DTD/sodipodi-0.dtd"
   xmlns:inkscape="http://www.inkscape.org/namespaces/inkscape"
   width="80.619965"
   height="82.608368"
   viewBox="0 0 80.619965 82.608368"
   version="1.1"
   id="svg4"
   sodipodi:docname="but4.svg"
   style="fill:none"
   inkscape:version="0.92.2 (5c3e80d, 2017-08-06)">
  <metadata
     id="metadata10">
    <rdf:RDF>
      <cc:Work
         rdf:about="">
        <dc:format>image/svg+xml</dc:format>
        <dc:type
           rdf:resource="http://purl.org/dc/dcmitype/StillImage" />
        <dc:title></dc:title>
      </cc:Work>
    </rdf:RDF>
  </metadata>
  <defs
     id="defs8" />
  <sodipodi:namedview
     pagecolor="#ffffff"
     bordercolor="#666666"
     borderopacity="1"
     objecttolerance="10"
     gridtolerance="10"
     guidetolerance="10"
     inkscape:pageopacity="0"
     inkscape:pageshadow="2"
     inkscape:window-width="1817"
     inkscape:window-height="1051"
     id="namedview6"
     showgrid="false"
     fit-margin-top="0"
     fit-margin-left="0"
     fit-margin-right="0"
     fit-margin-bottom="0"
     inkscape:zoom="2.5652174"
     inkscape:cx="40.434634"
     inkscape:cy="41.286334"
     inkscape:window-x="94"
     inkscape:window-y="-9"
     inkscape:window-maximized="1"
     inkscape:current-layer="svg4" />
  <path
     d="M 31.04891,70.962983 H 13.083598 C 12.649467,69.411948 11.668381,68.070568 10.321701,67.186944 8.9751286,66.30332 7.3541006,65.937277 5.7584396,66.156364 4.1627695,66.375451 2.70042,67.164936 1.641823,68.378853 0.5832278,69.592679 0,71.148834 0,72.759514 c 0,1.61068 0.5832278,3.166836 1.641823,4.380662 1.058597,1.213916 2.5209465,2.003402 4.1166166,2.222489 1.595661,0.219087 3.216689,-0.146956 4.5632614,-1.03058 1.34668,-0.883624 2.327766,-2.225004 2.761897,-3.776039 H 31.04891 c 0.426228,2.263539 1.629903,4.307093 3.4029,5.777374 1.772997,1.470282 4.004019,2.274948 6.307352,2.274948 2.303332,0 4.534265,-0.804666 6.307262,-2.274948 1.773086,-1.470281 2.976672,-3.513835 3.402989,-5.777374 h 17.067046 c 0.434132,1.551035 1.415218,2.892415 2.761808,3.776039 1.34659,0.883624 2.96769,1.249667 4.563279,1.03058 1.595679,-0.219087 3.058055,-1.008573 4.116661,-2.222489 1.058606,-1.213826 1.641761,-2.769982 1.641761,-4.380662 0,-1.61068 -0.583155,-3.166835 -1.641761,-4.380661 -1.058606,-1.213917 -2.520982,-2.003402 -4.116661,-2.222489 -1.595589,-0.219087 -3.216689,0.146956 -4.563279,1.03058 -1.34659,0.883624 -2.327676,2.225004 -2.761808,3.776039 H 50.469413 C 50.105076,68.998476 49.153813,67.190537 47.740931,65.777655 46.328139,64.364863 44.5202,63.4136 42.555693,63.049263 V 56.078722 C 52.203066,55.755346 61.419271,52.818018 61.419271,47.48232 V 8.6233499 C 61.419271,2.9642765 51.026338,0 40.759162,0 30.491986,0 20.099053,2.9642765 20.099053,8.6233499 V 47.491303 c 0,5.326715 9.216205,8.264043 18.863577,8.596402 v 6.970541 c -1.963339,0.363707 -3.77038,1.313713 -5.183082,2.724799 -1.412702,1.411085 -2.364684,3.217048 -2.730638,5.179938 z m -24.3430154,4.8686 C 6.0979116,75.833379 5.5030806,75.654714 4.9967013,75.318224 4.4903221,74.981734 4.095166,74.502599 3.8612756,73.941362 3.6273762,73.380216 3.5652612,72.762209 3.6827813,72.165671 3.8003014,71.569223 4.0921748,71.020921 4.521447,70.590472 4.9507281,70.159934 5.4980956,69.86638 6.0942656,69.747181 c 0.596169,-0.11929 1.21432,-0.05902 1.776185,0.173275 0.561874,0.232202 1.042195,0.626001 1.380158,1.131366 0.337928,0.505364 0.518389,1.099746 0.518389,1.707692 -0.0023,0.812482 -0.325531,1.591188 -0.899235,2.166527 -0.573678,0.575339 -1.351396,0.900781 -2.163868,0.905542 z M 73.914145,69.687446 c 0.607946,-0.0018 1.202778,0.176868 1.70913,0.513359 0.506442,0.33649 0.901589,0.815625 1.135498,1.376861 0.233818,0.561147 0.295978,1.179154 0.178485,1.775692 -0.117583,0.596448 -0.409429,1.144749 -0.83871,1.575198 -0.429282,0.430539 -0.976595,0.724092 -1.572774,0.843292 -0.596179,0.11929 -1.214365,0.05902 -1.77623,-0.173275 -0.561865,-0.232202 -1.042168,-0.626002 -1.380185,-1.131366 -0.337928,-0.505364 -0.518299,-1.099747 -0.518299,-1.707693 0.0023,-0.812481 0.325531,-1.591187 0.899163,-2.166527 0.573723,-0.575339 1.351441,-0.90078 2.163922,-0.905541 z m -26.867124,3.072068 c 0,1.243649 -0.368828,2.459272 -1.059684,3.493355 -0.690946,1.033994 -1.67302,1.839918 -2.821901,2.315909 -1.148972,0.475901 -2.413281,0.6004 -3.633036,0.357779 -1.219665,-0.242622 -2.340071,-0.841495 -3.219473,-1.720897 -0.879313,-0.879313 -1.478186,-1.999719 -1.720808,-3.219474 -0.242621,-1.219665 -0.118122,-2.483974 0.357779,-3.632946 0.475901,-1.148971 1.281825,-2.130955 2.315909,-2.821901 1.033993,-0.690946 2.249706,-1.059684 3.493355,-1.059684 1.66763,0 3.266992,0.662471 4.446145,1.841714 1.179243,1.179153 1.841714,2.778515 1.841714,4.446145 z M 40.759162,3.5930624 c 11.039684,0 17.067046,3.3235825 17.067046,5.0302875 0,1.7067051 -6.027362,5.0302871 -17.067046,5.0302871 -11.039685,0 -17.067047,-3.323582 -17.067047,-5.0302871 0,-1.706705 6.027362,-5.0302875 17.067047,-5.0302875 z M 23.692115,13.698551 c 3.925421,2.344473 10.51869,3.593062 17.067047,3.593062 6.548356,0 13.141626,-1.203676 17.067046,-3.593062 v 7.859824 c 0,1.706704 -6.027362,5.030287 -17.067046,5.030287 -11.039685,0 -17.067047,-3.323583 -17.067047,-5.030287 z m 0,12.935024 c 3.925421,2.344474 10.51869,3.593063 17.067047,3.593063 6.548356,0 13.141626,-1.203676 17.067046,-3.593063 v 7.859824 c 0,1.706705 -6.027362,5.030288 -17.067046,5.030288 -11.039685,0 -17.067047,-3.323583 -17.067047,-5.030288 z m 0,20.857728 v -7.967616 c 3.925421,2.344473 10.51869,3.593062 17.067047,3.593062 6.548356,0 13.141626,-1.203676 17.067046,-3.593062 v 7.922702 c 0,1.706705 -6.027362,5.030288 -17.067046,5.030288 -11.039685,0 -17.067047,-3.27867 -17.067047,-4.985374 z"
     id="path2"
     inkscape:connector-curvature="0"
     style="fill:#000000;stroke-width:0.8982656" />
</svg>
