<svg width="90" height="92" viewBox="0 0 90 92" fill="none" xmlns="http://www.w3.org/2000/svg">
<path d="M34.5654 79H14.5654C14.0821 77.2733 12.9899 75.78 11.4907 74.7963C9.99162 73.8126 8.187 73.4051 6.41062 73.649C4.63423 73.8929 3.00626 74.7718 1.82777 76.1232C0.649282 77.4745 -9.7259e-08 79.2069 -9.7259e-08 81C-9.7259e-08 82.7931 0.649282 84.5255 1.82777 85.8768C3.00626 87.2282 4.63423 88.1071 6.41062 88.351C8.187 88.5949 9.99162 88.1874 11.4907 87.2037C12.9899 86.22 14.0821 84.7267 14.5654 83H34.5654C35.0399 85.5199 36.3799 87.7949 38.3537 89.4317C40.3275 91.0685 42.8112 91.9643 45.3754 91.9643C47.9396 91.9643 50.4232 91.0685 52.397 89.4317C54.3709 87.7949 55.7108 85.5199 56.1854 83H75.1854C75.6687 84.7267 76.7609 86.22 78.26 87.2037C79.7591 88.1874 81.5638 88.5949 83.3401 88.351C85.1165 88.1071 86.7445 87.2282 87.923 85.8768C89.1015 84.5255 89.7507 82.7931 89.7507 81C89.7507 79.2069 89.1015 77.4745 87.923 76.1232C86.7445 74.7718 85.1165 73.8929 83.3401 73.649C81.5638 73.4051 79.7591 73.8126 78.26 74.7963C76.7609 75.78 75.6687 77.2733 75.1854 79H56.1854C55.7798 76.813 54.7208 74.8003 53.1479 73.2274C51.5751 71.6546 49.5624 70.5956 47.3754 70.19V62.43C58.1154 62.07 68.3754 58.8 68.3754 52.86V9.6C68.3754 3.3 56.8054 0 45.3754 0C33.9454 0 22.3754 3.3 22.3754 9.6V52.87C22.3754 58.8 32.6354 62.07 43.3754 62.44V70.2C41.1897 70.6049 39.178 71.6625 37.6053 73.2334C36.0326 74.8043 34.9728 76.8148 34.5654 79ZM7.46538 84.42C6.78854 84.422 6.12634 84.2231 5.56261 83.8485C4.99888 83.4739 4.55897 82.9405 4.29859 82.3157C4.0382 81.691 3.96905 81.003 4.09988 80.3389C4.23071 79.6749 4.55564 79.0645 5.03353 78.5853C5.51143 78.106 6.12079 77.7792 6.78448 77.6465C7.44817 77.5137 8.13633 77.5808 8.76183 77.8394C9.38734 78.0979 9.92206 78.5363 10.2983 79.0989C10.6745 79.6615 10.8754 80.3232 10.8754 81C10.8728 81.9045 10.513 82.7714 9.87432 83.4119C9.23567 84.0524 8.36987 84.4147 7.46538 84.42ZM82.2854 77.58C82.9622 77.578 83.6244 77.7769 84.1881 78.1515C84.7519 78.5261 85.1918 79.0595 85.4522 79.6843C85.7125 80.309 85.7817 80.997 85.6509 81.6611C85.52 82.3251 85.1951 82.9355 84.7172 83.4147C84.2393 83.894 83.63 84.2208 82.9663 84.3535C82.3026 84.4863 81.6144 84.4192 80.9889 84.1606C80.3634 83.9021 79.8287 83.4637 79.4524 82.9011C79.0762 82.3385 78.8754 81.6768 78.8754 81C78.878 80.0955 79.2378 79.2286 79.8764 78.5881C80.5151 77.9476 81.3809 77.5853 82.2854 77.58ZM52.3754 81C52.3754 82.3845 51.9648 83.7378 51.1957 84.889C50.4265 86.0401 49.3332 86.9373 48.0542 87.4672C46.7751 87.997 45.3676 88.1356 44.0097 87.8655C42.6519 87.5954 41.4046 86.9287 40.4256 85.9497C39.4467 84.9708 38.78 83.7235 38.5099 82.3656C38.2398 81.0078 38.3784 79.6003 38.9082 78.3212C39.438 77.0421 40.3352 75.9489 41.4864 75.1797C42.6375 74.4105 43.9909 74 45.3754 74C47.2319 74 49.0124 74.7375 50.3251 76.0503C51.6379 77.363 52.3754 79.1435 52.3754 81ZM45.3754 4C57.6654 4 64.3754 7.7 64.3754 9.6C64.3754 11.5 57.6654 15.2 45.3754 15.2C33.0854 15.2 26.3754 11.5 26.3754 9.6C26.3754 7.7 33.0854 4 45.3754 4ZM26.3754 15.25C30.7454 17.86 38.0854 19.25 45.3754 19.25C52.6654 19.25 60.0054 17.91 64.3754 15.25V24C64.3754 25.9 57.6654 29.6 45.3754 29.6C33.0854 29.6 26.3754 25.9 26.3754 24V15.25ZM26.3754 29.65C30.7454 32.26 38.0854 33.65 45.3754 33.65C52.6654 33.65 60.0054 32.31 64.3754 29.65V38.4C64.3754 40.3 57.6654 44 45.3754 44C33.0854 44 26.3754 40.3 26.3754 38.4V29.65ZM26.3754 52.87V44C30.7454 46.61 38.0854 48 45.3754 48C52.6654 48 60.0054 46.66 64.3754 44V52.82C64.3754 54.72 57.6654 58.42 45.3754 58.42C33.0854 58.42 26.3754 54.77 26.3754 52.87Z" fill="black"/>
</svg>
