<svg width="128" height="89" viewBox="0 0 128 89" fill="none" xmlns="http://www.w3.org/2000/svg">
<path d="M120 8.69751e-07H8C3.581 8.69751e-07 0 3.556 0 7.94V68.176C0 72.56 3.581 76.116 8 76.116H53.375V84.024H40.855C39.751 84.024 38.855 84.92 38.855 86.024C38.855 87.128 39.751 88.024 40.855 88.024H87.144C88.248 88.024 89.144 87.128 89.144 86.024C89.144 84.92 88.248 84.024 87.144 84.024H74.624V76.116H120C124.418 76.116 128 72.559 128 68.176V7.939C128 3.555 124.418 8.69751e-07 120 8.69751e-07ZM70.625 76.136V83.999H57.375V76.136H70.625ZM124 68.176C124 70.349 122.206 72.116 120 72.116H8C5.794 72.116 4 70.348 4 68.176V7.939C4 5.767 5.794 3.999 8 3.999H120C122.206 3.999 124 5.766 124 7.939V68.176Z" fill="black"/>
<path d="M66 -1.06812e-06H6C2.7 -1.06812e-06 0 2.7 0 6C0 9.3 2.7 12 6 12H66C69.3 12 72 9.3 72 6C72 2.7 69.3 -1.06812e-06 66 -1.06812e-06ZM66 8H49.25V4H66C67.084 4 68 4.916 68 6C68 7.084 67.084 8 66 8Z" transform="translate(28 32.0071)" fill="black"/>
</svg>
