<svg width="26" height="26" viewBox="0 0 26 26" fill="none" xmlns="http://www.w3.org/2000/svg">
<path d="M23.6165 7.82589e-07C23.9963 7.82589e-07 24.3218 0.135761 24.5931 0.40728C24.8644 0.6788 25 1.00462 25 1.38475V23.6385C25 24.0187 24.8644 24.3445 24.5931 24.616C24.3218 24.8875 23.9963 25.0233 23.6165 25.0233H17.2526V15.33H20.4915L20.9798 11.5505H17.2526V9.13936C17.2526 8.53116 17.3801 8.075 17.6351 7.7709C17.8901 7.4668 18.3865 7.31475 19.1243 7.31475L21.11 7.29846V3.92618C20.4264 3.82843 19.4607 3.77956 18.2129 3.77956C16.7372 3.77956 15.5572 4.21399 14.6729 5.08285C13.7885 5.95172 13.3464 7.17899 13.3464 8.76467V11.5505H10.0911V15.33H13.3464V25.0233H1.38346C1.00369 25.0233 0.678169 24.8875 0.406901 24.616C0.135634 24.3445 0 24.0187 0 23.6385V1.38475C0 1.00462 0.135634 0.6788 0.406901 0.40728C0.678169 0.135761 1.00369 7.82589e-07 1.38346 7.82589e-07H23.6165Z" transform="translate(0.621826 0.0996094)" fill="white" fill-opacity="0.75"/>
</svg>
