<svg width="26" height="21" viewBox="0 0 26 21" fill="none" xmlns="http://www.w3.org/2000/svg">
<path d="M25 2.41341C24.2915 3.45076 23.4349 4.33462 22.4302 5.06499C22.4408 5.21318 22.4461 5.43547 22.4461 5.73186C22.4461 7.10792 22.2451 8.48135 21.8433 9.85213C21.4414 11.2229 20.8307 12.5381 20.0111 13.7977C19.1915 15.0574 18.2159 16.1715 17.0844 17.14C15.9528 18.1085 14.5886 18.8813 12.9918 19.4581C11.3949 20.035 9.68697 20.3235 7.86802 20.3235C5.00212 20.3235 2.37944 19.5561 1.43391e-08 18.0212C0.370135 18.0636 0.782572 18.0847 1.23731 18.0847C3.61675 18.0847 5.7371 17.3543 7.59835 15.8936C6.48794 15.8724 5.49387 15.5311 4.61612 14.8695C3.73837 14.2079 3.13558 13.3637 2.80774 12.337C3.15673 12.3899 3.47927 12.4164 3.77538 12.4164C4.23012 12.4164 4.67957 12.3582 5.12373 12.2417C3.9393 11.9983 2.95844 11.4081 2.18115 10.4714C1.40387 9.53457 1.01523 8.44695 1.01523 7.20849V7.14497C1.73435 7.54721 2.50634 7.76421 3.33122 7.79596C2.63325 7.33022 2.07805 6.72157 1.66561 5.97002C1.25317 5.21848 1.04695 4.40342 1.04695 3.52485C1.04695 2.59336 1.27961 1.73067 1.74492 0.936786C3.02453 2.51397 4.58175 3.77625 6.41656 4.72362C8.25137 5.67099 10.2157 6.1976 12.3096 6.30345C12.225 5.90122 12.1827 5.50957 12.1827 5.1285C12.1827 3.7101 12.6824 2.50074 13.6818 1.50044C14.6812 0.500148 15.8894 -3.81363e-07 17.3065 -3.81363e-07C18.787 -3.81363e-07 20.0349 0.539842 21.0501 1.61953C22.2028 1.39724 23.2868 0.98442 24.302 0.381066C23.9107 1.59836 23.1599 2.54044 22.0495 3.2073C23.033 3.10145 24.0165 2.83682 25 2.41341Z" transform="translate(0.621826 0.0996094)" fill="white" fill-opacity="0.75"/>
</svg>
