<svg width="26" height="26" viewBox="0 0 26 26" fill="none" xmlns="http://www.w3.org/2000/svg">
<path d="M16.6667 12.5116C16.6667 11.3604 16.2598 10.3775 15.446 9.56293C14.6322 8.74837 13.6502 8.34109 12.5 8.34109C11.3498 8.34109 10.3678 8.74837 9.55404 9.56293C8.74023 10.3775 8.33333 11.3604 8.33333 12.5116C8.33333 13.6629 8.74023 14.6458 9.55404 15.4603C10.3678 16.2749 11.3498 16.6822 12.5 16.6822C13.6502 16.6822 14.6322 16.2749 15.446 15.4603C16.2598 14.6458 16.6667 13.6629 16.6667 12.5116ZM18.9128 12.5116C18.9128 14.2928 18.2888 15.8079 17.041 17.0569C15.7932 18.3059 14.2795 18.9304 12.5 18.9304C10.7205 18.9304 9.20681 18.3059 7.95898 17.0569C6.71115 15.8079 6.08724 14.2928 6.08724 12.5116C6.08724 10.7305 6.71115 9.21539 7.95898 7.9664C9.20681 6.7174 10.7205 6.09291 12.5 6.09291C14.2795 6.09291 15.7932 6.7174 17.041 7.9664C18.2888 9.21539 18.9128 10.7305 18.9128 12.5116ZM20.6706 5.83225C20.6706 6.24496 20.5241 6.59793 20.2311 6.89118C19.9382 7.18442 19.5855 7.33104 19.1732 7.33104C18.7608 7.33104 18.4082 7.18442 18.1152 6.89118C17.8223 6.59793 17.6758 6.24496 17.6758 5.83225C17.6758 5.41954 17.8223 5.06656 18.1152 4.77332C18.4082 4.48008 18.7608 4.33346 19.1732 4.33346C19.5855 4.33346 19.9382 4.48008 20.2311 4.77332C20.5241 5.06656 20.6706 5.41954 20.6706 5.83225ZM12.5 2.24819C12.424 2.24819 12.009 2.24547 11.2549 2.24004C10.5008 2.23461 9.92839 2.23461 9.53776 2.24004C9.14714 2.24547 8.62359 2.26176 7.96712 2.28891C7.31065 2.31607 6.75184 2.37037 6.29069 2.45183C5.82954 2.53328 5.44162 2.63374 5.12695 2.75321C4.58442 2.97043 4.10699 3.28539 3.69466 3.6981C3.28234 4.11081 2.96766 4.58869 2.75065 5.13173C2.63129 5.44669 2.53092 5.83497 2.44954 6.29655C2.36816 6.75813 2.31391 7.31746 2.28678 7.97454C2.25966 8.63162 2.24338 9.15566 2.23796 9.54665C2.23253 9.93763 2.23253 10.5105 2.23796 11.2654C2.24338 12.0202 2.24609 12.4356 2.24609 12.5116C2.24609 12.5877 2.24338 13.0031 2.23796 13.7579C2.23253 14.5127 2.23253 15.0857 2.23796 15.4766C2.24338 15.8676 2.25966 16.3917 2.28678 17.0487C2.31391 17.7058 2.36816 18.2652 2.44954 18.7267C2.53092 19.1883 2.63129 19.5766 2.75065 19.8916C2.96766 20.4346 3.28234 20.9125 3.69466 21.3252C4.10699 21.7379 4.58442 22.0529 5.12695 22.2701C5.44162 22.3895 5.82954 22.49 6.29069 22.5715C6.75184 22.6529 7.31065 22.7072 7.96712 22.7344C8.62359 22.7615 9.14714 22.7778 9.53776 22.7832C9.92839 22.7887 10.5008 22.7887 11.2549 22.7832C12.009 22.7778 12.424 22.7751 12.5 22.7751C12.576 22.7751 12.991 22.7778 13.7451 22.7832C14.4992 22.7887 15.0716 22.7887 15.4622 22.7832C15.8529 22.7778 16.3764 22.7615 17.0329 22.7344C17.6893 22.7072 18.2482 22.6529 18.7093 22.5715C19.1705 22.49 19.5584 22.3895 19.873 22.2701C20.4156 22.0529 20.893 21.7379 21.3053 21.3252C21.7177 20.9125 22.0323 20.4346 22.2493 19.8916C22.3687 19.5766 22.4691 19.1883 22.5505 18.7267C22.6318 18.2652 22.6861 17.7058 22.7132 17.0487C22.7403 16.3917 22.7566 15.8676 22.762 15.4766C22.7675 15.0857 22.7675 14.5127 22.762 13.7579C22.7566 13.0031 22.7539 12.5877 22.7539 12.5116C22.7539 12.4356 22.7566 12.0202 22.762 11.2654C22.7675 10.5105 22.7675 9.93763 22.762 9.54665C22.7566 9.15566 22.7403 8.63162 22.7132 7.97454C22.6861 7.31746 22.6318 6.75813 22.5505 6.29655C22.4691 5.83497 22.3687 5.44669 22.2493 5.13173C22.0323 4.58869 21.7177 4.11081 21.3053 3.6981C20.893 3.28539 20.4156 2.97043 19.873 2.75321C19.5584 2.63374 19.1705 2.53328 18.7093 2.45183C18.2482 2.37037 17.6893 2.31607 17.0329 2.28891C16.3764 2.26176 15.8529 2.24547 15.4622 2.24004C15.0716 2.23461 14.4992 2.23461 13.7451 2.24004C12.991 2.24547 12.576 2.24819 12.5 2.24819ZM25 12.5116C25 14.9988 24.9729 16.7202 24.9186 17.676C24.8101 19.935 24.1374 21.6836 22.9004 22.9217C21.6634 24.1598 19.9164 24.8332 17.6595 24.9418C16.7046 24.9961 14.9848 25.0233 12.5 25.0233C10.0152 25.0233 8.29536 24.9961 7.34049 24.9418C5.08355 24.8332 3.33659 24.1598 2.09961 22.9217C0.86263 21.6836 0.189887 19.935 0.0813799 17.676C0.0271269 16.7202 0 14.9988 0 12.5116C0 10.0245 0.0271269 8.30308 0.0813799 7.34733C0.189887 5.08828 0.86263 3.33969 2.09961 2.10156C3.33659 0.863431 5.08355 0.190065 7.34049 0.0814573C8.29536 0.0271539 10.0152 7.82589e-07 12.5 7.82589e-07C14.9848 7.82589e-07 16.7046 0.0271539 17.6595 0.0814573C19.9164 0.190065 21.6634 0.863431 22.9004 2.10156C24.1374 3.33969 24.8101 5.08828 24.9186 7.34733C24.9729 8.30308 25 10.0245 25 12.5116Z" transform="translate(0.621826 0.0996094)" fill="white" fill-opacity="0.75"/>
</svg>
