<svg width="177" height="69" viewBox="0 0 177 69" version="1.1" xmlns="http://www.w3.org/2000/svg" xmlns:xlink="http://www.w3.org/1999/xlink">
<title>dotmeta Logo (White)</title>
<desc>Created using Figma</desc>
<g id="Canvas" transform="translate(-4795 -410)">
<rect x="4795" y="410" width="177" height="69" fill="#E5E5E5"/>
<clipPath id="clip-0" clip-rule="evenodd">
<path d="M 3695 0L 5020 0L 5020 1500L 3695 1500L 3695 0Z" fill="#FFFFFF"/>
</clipPath>
<g id="Logos" clip-path="url(#clip-0)">
<path d="M 3695 0L 5020 0L 5020 1500L 3695 1500L 3695 0Z" fill="#3C3C3C"/>
<g id="dotmeta Logo (White)">
<use xlink:href="#path0_fill" transform="translate(4795 410)" fill="#FFFFFF"/>
<use xlink:href="#path1_fill" transform="translate(4795 410)" fill="#FFFFFF"/>
<use xlink:href="#path2_fill" transform="translate(4795 410)" fill="#FFFFFF"/>
</g>
</g>
</g>
<defs>
<path id="path0_fill" fill-rule="evenodd" d="M 92.2796 27.5063C 91.1916 26.6183 89.8466 26.1743 88.2386 26.1743C 86.4896 26.1743 85.1336 26.6453 84.1706 27.5853C 83.2076 28.5253 82.6046 29.7993 82.3566 31.4073L 94.0936 31.4073C 93.9686 29.6943 93.3656 28.3923 92.2796 27.5063Z"/>
<path id="path1_fill" fill-rule="evenodd" d="M 137.871 27.182C 136.144 27.182 134.532 27.873 133.266 29.139C 132.058 30.406 131.367 32.132 131.367 33.916C 131.367 35.7 132.058 37.369 133.266 38.693C 134.532 39.96 136.144 40.651 137.871 40.651C 139.598 40.651 141.21 39.96 142.419 38.693C 143.684 37.369 144.317 35.7 144.317 33.916C 144.317 32.132 143.684 30.406 142.419 29.139C 141.21 27.873 139.598 27.182 137.871 27.182Z"/>
<path id="path2_fill" fill-rule="evenodd" d="M 151.57 46.349L 145.469 46.349L 145.469 43.932C 143.166 45.889 140.173 47.04 136.949 47.04C 129.639 47.04 123.769 41.169 123.769 33.916C 123.769 26.606 129.639 20.793 136.949 20.793C 140.173 20.793 143.166 21.943 145.469 23.901L 145.469 21.541L 151.57 21.541L 151.57 46.349ZM 121.947 28.275L 116.191 28.275L 116.191 46.349L 108.88 46.349L 108.88 28.275L 103.7 28.275L 103.7 21.541L 108.88 21.541L 108.88 12.332L 116.191 12.332L 116.191 21.541L 121.947 21.541L 121.947 28.275ZM 101.167 35.668L 82.189 35.668C 82.295 38.144 83.203 39.881 84.914 40.878C 85.954 41.497 87.206 41.807 88.67 41.807C 90.222 41.807 91.483 41.429 92.454 40.674C 92.982 40.265 93.449 39.7 93.856 38.975L 100.811 38.975C 100.628 40.44 99.785 41.928 98.285 43.439C 95.951 45.839 92.683 47.04 88.482 47.04C 85.015 47.04 81.954 46.027 79.304 44.001C 76.653 41.977 75.328 38.68 75.328 34.115C 75.328 29.838 76.525 26.557 78.917 24.275C 81.31 21.991 84.417 20.85 88.235 20.85C 90.503 20.85 92.546 21.236 94.364 22.007C 96.18 22.779 97.682 23.998 98.867 25.66C 99.934 27.129 100.626 28.83 100.943 30.765C 101.126 31.901 101.201 33.535 101.167 35.668ZM 72.466 46.349L 66.02 46.349L 66.02 34.031C 66.02 30.463 63.776 27.297 60.494 27.297C 57.271 27.297 55.141 30.52 55.026 33.628L 55.026 46.349L 48.58 46.349L 48.58 34.031C 48.58 30.463 46.277 27.297 43.054 27.297C 40.233 27.297 38.449 29.485 37.758 32.075L 37.758 46.349L 30.851 46.349L 30.851 21.541L 37.758 21.541L 37.758 23.312C 39.508 21.86 41.706 20.85 43.802 20.85C 47.371 20.85 50.479 22.75 52.552 25.743C 54.566 22.75 57.789 20.85 61.3 20.85C 67.459 20.85 72.466 26.722 72.466 34.031L 72.466 46.349ZM 24.135 46.349C 22.053 46.349 20.365 44.661 20.365 42.579C 20.365 40.497 22.053 38.809 24.135 38.809C 26.218 38.809 27.905 40.497 27.905 42.579C 27.905 44.661 26.218 46.349 24.135 46.349ZM 0 68.045L 176.929 68.045L 176.929 0L 0 0L 0 68.045Z"/>
</defs>
</svg>
